<svg xmlns="http://www.w3.org/2000/svg" viewBox="0 0 21 17" width="22" height="22"><path d="M3.3 12.8C1.9 11.7.8 10.3 0 8.7v-.4c1.9-4 5.9-6.6 10.4-6.6 1.2 0 2.4.2 3.4.5L12 4.1c-2.4-.9-5.1.4-6 2.8-.4 1-.4 2.1 0 3.2l-2.7 2.7zm14.3-8.6c1.4 1.1 2.5 2.5 3.2 4.1.1.1.1.3 0 .4-1.9 4-5.9 6.6-10.4 6.6-1.2 0-2.3-.2-3.4-.5l1.9-1.9c2.4.9 5.1-.4 6-2.8.4-1 .4-2.1 0-3.2l2.7-2.7zm-7.2 7.3h-.2l3.2-3.2v.2c0 1.7-1.3 3-3 3zm0-6h.2L7.4 8.7C7.3 7 8.6 5.6 10.3 5.5h.1zM4 13.3l2.4-2.4 1.3-1.3 4-4L13 4.3l1.9-1.9L16.8.5c.4-.4 1.1-.4 1.6 0 .4.4.4 1.1 0 1.6L17 3.5l-2.4 2.4-1.3 1.3-4 4L8 12.5l-1.9 1.9-1.9 1.9c-.4.4-1.1.4-1.6 0-.4-.4-.4-1.1 0-1.6L4 13.3z" fill="#58627b"/></svg>
